<svg xmlns="http://www.w3.org/2000/svg" xmlns:v="https://svgstorm.com"
viewBox="110 140 280 230"
width="100%"
height="100%">
<g fill="None" fill-opacity="0.0" stroke="#000000" stroke-opacity="0.00" stroke-width="0.3"><path d="
M 0.00 512.00 
L 512.00 512.00
L 512.00 0.00
L 0.00 0.00
L 0.00 512.00
M 291.00 176.00 
C 300.26 180.68 312.64 187.83 319.00 197.00
C 315.89 187.16 313.32 177.09 311.00 167.00
C 362.71 162.22 339.23 239.02 383.00 248.00
C 383.00 250.33 383.00 252.67 383.00 255.00
C 383.35 257.94 384.89 260.95 383.00 264.00
C 378.87 270.68 365.76 271.03 362.08 280.08 C 358.40 289.13 353.92 296.79 351.22 306.22 C 348.52 315.66 346.63 325.03 341.69 333.69 C 336.76 342.36 326.09 345.82 317.00 346.00
C 298.05 348.29 274.90 347.83 256.00 346.00
C 246.70 346.00 238.51 343.91 230.00 341.00
C 218.51 337.07 200.75 327.46 194.00 317.00
C 196.90 326.56 199.22 336.37 202.00 346.00
C 177.42 350.99 165.23 327.86 162.00 308.00
C 159.99 301.64 157.67 295.72 155.68 289.32 C 153.69 282.92 149.04 279.98 145.75 274.25 C 142.46 268.51 133.28 268.99 130.00 265.00
C 127.89 262.44 128.17 251.56 130.00 249.00
C 133.08 244.68 142.17 244.83 145.75 239.75 C 149.32 234.66 153.26 230.31 155.32 224.32 C 157.38 218.33 159.92 212.07 162.00 206.00
C 165.84 194.78 166.56 185.31 174.75 175.75 C 182.94 166.20 197.00 167.00 209.00 167.00
C 224.67 167.00 240.33 167.00 256.00 167.00
C 268.57 167.00 280.34 170.61 291.00 176.00 Z"/>
</g>
<g fill="None" fill-opacity="0.0" stroke="#23A1E5" stroke-opacity="1.00" stroke-width="0.3"><path d="
M 162.00 206.00 
C 161.48 212.38 160.53 222.36 160.00 231.00 C 159.47 239.64 160.86 249.03 160.20 257.25 C 159.54 265.46 160.95 277.46 160.80 285.25 C 160.65 293.04 161.57 301.86 162.00 308.00
C 165.23 327.86 177.42 350.99 202.00 346.00
C 199.22 336.37 196.90 326.56 194.00 317.00
C 191.07 307.35 187.80 297.03 185.00 287.00
C 181.86 275.73 178.46 263.10 167.00 257.00
C 175.58 250.62 181.99 241.43 184.00 231.00
C 188.84 213.40 192.52 195.64 211.00 187.00
C 210.52 187.06 208.21 185.82 207.00 187.00
C 208.92 181.19 209.93 169.41 202.00 168.00
C 204.19 167.48 207.62 169.14 209.00 167.00
C 197.00 167.00 182.94 166.20 174.75 175.75 C 166.56 185.31 165.84 194.78 162.00 206.00 Z"/>
</g>
<g fill="None" fill-opacity="0.0" stroke="#4280DA" stroke-opacity="1.00" stroke-width="0.3"><path d="
M 211.00 187.00 
C 220.14 182.72 230.62 181.00 241.00 181.00
C 245.26 180.59 251.03 179.23 256.00 180.00
C 253.27 178.39 255.52 175.35 252.00 174.00
C 255.64 174.61 257.26 169.72 256.00 167.00
C 240.33 167.00 224.67 167.00 209.00 167.00
C 207.62 169.14 204.19 167.48 202.00 168.00
C 209.93 169.41 208.92 181.19 207.00 187.00
C 208.21 185.82 210.52 187.06 211.00 187.00 Z"/>
</g>
<g fill="None" fill-opacity="0.0" stroke="#5865D1" stroke-opacity="0.99" stroke-width="0.3"><path d="
M 241.00 181.00 
C 243.00 181.00 245.00 181.00 247.00 181.00
C 247.50 181.00 248.50 181.00 249.00 181.00
C 253.61 181.00 258.42 180.60 263.00 181.00
C 275.06 182.06 289.16 186.61 299.00 194.00
C 296.85 190.33 294.56 180.33 291.00 176.00
C 280.34 170.61 268.57 167.00 256.00 167.00
C 257.26 169.72 255.64 174.61 252.00 174.00
C 255.52 175.35 253.27 178.39 256.00 180.00
C 251.03 179.23 245.26 180.59 241.00 181.00 Z"/>
</g>
<g fill="None" fill-opacity="0.0" stroke="#7C43D9" stroke-opacity="1.00" stroke-width="0.3"><path d="
M 319.00 197.00 
C 322.04 206.62 325.31 216.93 328.00 227.00
C 331.03 238.34 334.32 251.19 346.00 257.00
C 336.27 262.18 330.71 272.72 329.00 283.00
C 324.17 300.57 319.17 318.16 301.00 326.00
C 298.88 327.47 295.65 330.77 294.00 333.00
C 296.07 336.68 294.05 343.21 291.00 346.00
C 299.66 346.00 308.34 346.17 317.00 346.00
C 326.09 345.82 336.76 342.36 341.69 333.69 C 346.63 325.03 348.52 315.66 351.22 306.22 C 353.92 296.79 358.40 289.13 362.08 280.08 C 365.76 271.03 378.87 270.68 383.00 264.00
C 383.88 261.89 383.05 257.31 383.00 255.00
C 383.00 252.67 383.00 250.33 383.00 248.00
C 339.23 239.02 362.71 162.22 311.00 167.00
C 313.32 177.09 315.89 187.16 319.00 197.00 Z"/>
</g>
<g fill="None" fill-opacity="0.0" stroke="#453D8C" stroke-opacity="0.99" stroke-width="0.3"><path d="
M 299.00 194.00 
C 310.34 202.52 321.54 214.77 328.00 227.00
C 325.31 216.93 322.04 206.62 319.00 197.00
C 312.64 187.83 300.26 180.68 291.00 176.00
C 294.56 180.33 296.85 190.33 299.00 194.00 Z"/>
</g>
<g fill="None" fill-opacity="0.0" stroke="#244971" stroke-opacity="1.00" stroke-width="0.3"><path d="
M 211.00 187.00 
C 192.52 195.64 188.84 213.40 184.00 231.00
C 189.98 218.35 196.43 208.19 207.70 198.70 C 218.96 189.20 233.54 184.86 247.00 181.00
C 245.00 181.00 243.00 181.00 241.00 181.00
C 230.62 181.00 220.14 182.72 211.00 187.00 Z"/>
</g>
<g fill="None" fill-opacity="0.0" stroke="#282D32" stroke-opacity="1.00" stroke-width="0.3"><path d="
M 184.00 231.00 
C 181.99 241.43 175.58 250.62 167.00 257.00
C 178.46 263.10 181.86 275.73 185.00 287.00
C 191.85 299.29 205.27 314.10 218.00 322.00
C 219.27 322.79 220.65 323.39 222.00 324.00
C 230.79 327.99 240.28 331.14 250.00 332.00
C 254.08 331.96 259.86 331.56 264.00 332.00
C 265.67 332.00 267.33 332.00 269.00 332.00
C 294.34 327.71 318.42 306.15 329.00 283.00
C 330.71 272.72 336.27 262.18 346.00 257.00
C 334.32 251.19 331.03 238.34 328.00 227.00
C 321.54 214.77 310.34 202.52 299.00 194.00
C 289.16 186.61 275.06 182.06 263.00 181.00
C 258.69 181.04 253.47 182.90 249.00 181.00
C 248.50 181.00 247.50 181.00 247.00 181.00
C 233.54 184.86 218.96 189.20 207.70 198.70 C 196.43 208.19 189.98 218.35 184.00 231.00
M 263.00 194.00 
C 265.64 194.14 267.52 194.45 270.00 195.00
C 298.68 201.35 318.58 226.51 319.00 256.00 C 319.42 285.49 298.94 311.59 270.00 318.00
C 262.29 319.71 254.91 320.34 247.00 319.00
C 236.73 317.26 227.20 313.20 219.00 307.00
C 218.06 306.29 216.90 305.68 216.00 305.00
C 212.94 303.32 208.66 298.83 207.00 296.00
C 205.22 293.74 203.31 291.26 202.00 289.00
C 199.81 285.96 197.11 283.43 198.00 280.00
C 197.87 279.65 197.26 279.24 197.00 279.00
C 193.85 276.09 195.22 272.87 195.00 270.00
C 194.61 267.96 194.12 266.28 194.00 264.00
C 193.96 263.78 193.22 263.30 193.00 263.00
C 191.40 260.83 190.93 252.00 193.00 250.00
C 193.26 249.75 194.00 250.00 194.00 250.00
C 194.43 238.67 199.79 228.65 205.00 219.00
C 207.70 213.99 213.35 208.88 217.00 207.00
C 218.32 206.06 219.81 205.74 221.00 205.00
C 230.13 199.33 238.53 194.44 250.00 194.00
C 254.29 193.39 258.76 193.31 263.00 194.00 Z"/>
</g>
<g fill="None" fill-opacity="0.0" stroke="#242506" stroke-opacity="1.00" stroke-width="0.3"><path d="
M 263.00 181.00 
C 258.42 180.60 253.61 181.00 249.00 181.00
C 253.47 182.90 258.69 181.04 263.00 181.00 Z"/>
</g>
<g fill="None" fill-opacity="0.0" stroke="#3E4D81" stroke-opacity="1.00" stroke-width="0.3"><path d="
M 250.00 194.00 
C 254.27 193.84 258.73 193.77 263.00 194.00
C 258.76 193.31 254.29 193.39 250.00 194.00 Z"/>
</g>
<g fill="None" fill-opacity="0.0" stroke="#4D79D7" stroke-opacity="1.00" stroke-width="0.3"><path d="
M 221.00 205.00 
C 219.30 208.49 223.65 216.81 225.00 218.00
C 225.53 217.50 226.47 217.40 227.00 217.00
C 236.70 209.73 249.22 205.46 262.00 207.00
C 263.10 206.53 263.56 198.00 265.00 196.00
C 266.36 197.13 269.02 196.31 270.00 195.00
C 267.52 194.45 265.64 194.14 263.00 194.00
C 258.73 193.77 254.27 193.84 250.00 194.00
C 238.53 194.44 230.13 199.33 221.00 205.00 Z"/>
</g>
<g fill="None" fill-opacity="0.0" stroke="#665AD4" stroke-opacity="1.00" stroke-width="0.3"><path d="
M 262.00 207.00 
C 283.59 209.61 302.94 227.96 305.78 250.22 C 308.62 272.48 293.45 297.04 272.00 304.00
C 273.79 302.39 273.81 306.85 271.00 305.00
C 270.04 309.75 273.09 313.05 270.00 318.00
C 298.94 311.59 319.42 285.49 319.00 256.00 C 318.58 226.51 298.68 201.35 270.00 195.00
C 269.02 196.31 266.36 197.13 265.00 196.00
C 263.56 198.00 263.10 206.53 262.00 207.00 Z"/>
</g>
<g fill="None" fill-opacity="0.0" stroke="#388FDE" stroke-opacity="1.00" stroke-width="0.3"><path d="
M 217.00 207.00 
C 212.74 210.03 207.87 214.98 205.00 219.00
C 199.79 228.65 194.43 238.67 194.00 250.00
C 193.82 254.60 193.76 259.40 194.00 264.00
C 194.12 266.28 194.61 267.96 195.00 270.00
C 195.59 273.09 195.78 276.07 197.00 279.00
C 197.26 279.24 197.87 279.65 198.00 280.00
C 199.14 283.03 200.32 286.11 202.00 289.00
C 203.31 291.26 205.22 293.74 207.00 296.00
C 209.60 299.30 212.69 302.50 216.00 305.00
C 216.90 305.68 218.06 306.29 219.00 307.00
C 216.22 303.04 221.01 294.11 226.00 296.00
C 216.05 287.66 208.40 275.55 207.00 263.00
C 206.56 259.03 206.53 253.97 207.00 250.00
C 207.98 241.72 211.93 233.36 217.00 227.00
C 219.37 224.03 222.28 220.54 225.00 218.00
C 223.65 216.81 219.30 208.49 221.00 205.00
C 219.81 205.74 218.32 206.06 217.00 207.00 Z"/>
</g>
<g fill="None" fill-opacity="0.0" stroke="#11B7EE" stroke-opacity="1.00" stroke-width="0.3"><path d="
M 130.00 249.00 
C 129.10 250.84 129.00 263.24 130.00 265.00
C 133.28 268.99 142.46 268.51 145.75 274.25 C 149.04 279.98 153.69 282.92 155.68 289.32 C 157.67 295.72 159.99 301.64 162.00 308.00
C 161.57 301.86 160.65 293.04 160.80 285.25 C 160.95 277.46 159.54 265.46 160.20 257.25 C 160.86 249.03 159.47 239.64 160.00 231.00 C 160.53 222.36 161.48 212.38 162.00 206.00
C 159.92 212.07 157.38 218.33 155.32 224.32 C 153.26 230.31 149.32 234.66 145.75 239.75 C 142.17 244.83 133.08 244.68 130.00 249.00 Z"/>
</g>
<g fill="None" fill-opacity="0.0" stroke="#291C10" stroke-opacity="1.00" stroke-width="0.3"><path d="
M 205.00 219.00 
C 207.87 214.98 212.74 210.03 217.00 207.00
C 213.35 208.88 207.70 213.99 205.00 219.00 Z"/>
</g>
<g fill="None" fill-opacity="0.0" stroke="#282D31" stroke-opacity="1.00" stroke-width="0.3"><path d="
M 227.00 217.00 
C 223.76 220.02 219.98 223.81 217.00 227.00
C 211.93 233.36 207.98 241.72 207.00 250.00
C 206.94 253.05 206.95 260.01 207.00 263.00
C 208.40 275.55 216.05 287.66 226.00 296.00
C 230.50 299.77 237.43 302.58 243.00 304.00
C 245.85 304.73 249.04 305.74 252.00 306.00
C 254.05 305.98 259.02 305.98 261.00 306.00
C 264.30 305.71 268.80 305.04 272.00 304.00
C 293.45 297.04 308.62 272.48 305.78 250.22 C 302.94 227.96 283.59 209.61 262.00 207.00
C 249.22 205.46 236.70 209.73 227.00 217.00
M 261.00 220.00 
C 261.25 220.26 261.00 221.00 261.00 221.00
C 261.50 221.00 262.50 220.98 263.00 221.00
C 277.64 221.60 291.07 238.36 292.00 252.00
C 292.57 255.19 292.51 257.89 292.00 261.00
C 290.88 281.59 269.86 295.38 251.00 292.00
C 234.30 289.01 224.31 278.15 220.00 262.00
C 219.00 258.27 218.91 254.68 220.00 251.00
C 221.35 246.41 223.31 241.34 226.00 237.00
C 227.75 233.20 231.32 228.89 235.00 227.00
C 239.69 223.65 245.22 221.39 251.00 221.00
C 251.06 220.99 251.00 220.00 251.00 220.00
C 252.68 218.26 259.36 218.30 261.00 220.00 Z"/>
</g>
<g fill="None" fill-opacity="0.0" stroke="#241C02" stroke-opacity="1.00" stroke-width="0.3"><path d="
M 225.00 218.00 
C 222.28 220.54 219.37 224.03 217.00 227.00
C 219.98 223.81 223.76 220.02 227.00 217.00
C 226.47 217.40 225.53 217.50 225.00 218.00 Z"/>
</g>
<g fill="None" fill-opacity="0.0" stroke="#22250E" stroke-opacity="1.00" stroke-width="0.3"><path d="
M 251.00 220.00 
C 254.15 219.72 257.85 219.72 261.00 220.00
C 259.36 218.30 252.68 218.26 251.00 220.00 Z"/>
</g>
<g fill="None" fill-opacity="0.0" stroke="#465DA3" stroke-opacity="1.00" stroke-width="0.3"><path d="
M 251.00 221.00 
C 254.30 220.78 257.69 221.00 261.00 221.00
C 261.00 221.00 261.25 220.26 261.00 220.00
C 257.85 219.72 254.15 219.72 251.00 220.00
C 251.00 220.00 251.06 220.99 251.00 221.00 Z"/>
</g>
<g fill="None" fill-opacity="0.0" stroke="#4C7CD9" stroke-opacity="1.00" stroke-width="0.3"><path d="
M 235.00 227.00 
C 231.16 229.74 228.37 233.17 226.00 237.00
C 223.31 241.34 221.35 246.41 220.00 251.00
C 219.49 254.15 219.56 258.83 220.00 262.00
C 224.31 278.15 234.30 289.01 251.00 292.00
C 256.57 291.32 252.84 285.17 254.00 281.00
C 252.20 281.36 250.58 280.80 252.00 279.00
C 243.36 277.68 235.37 269.62 234.00 261.00
C 233.60 258.51 233.54 254.48 234.00 252.00
C 234.27 250.54 235.37 249.06 236.00 248.00
C 237.99 243.83 240.09 240.94 244.00 238.00
C 247.21 235.59 250.30 235.37 254.00 234.00
C 254.99 233.64 256.39 232.30 258.00 233.00
C 258.15 227.51 263.38 226.64 263.00 221.00
C 262.50 220.98 261.50 221.00 261.00 221.00
C 257.69 221.00 254.30 220.78 251.00 221.00
C 245.22 221.39 239.69 223.65 235.00 227.00 Z"/>
</g>
<g fill="None" fill-opacity="0.0" stroke="#5F65D5" stroke-opacity="1.00" stroke-width="0.3"><path d="
M 254.00 234.00 
C 287.07 231.26 285.39 284.09 252.00 279.00
C 250.58 280.80 252.20 281.36 254.00 281.00
C 252.84 285.17 256.57 291.32 251.00 292.00
C 269.86 295.38 290.88 281.59 292.00 261.00
C 292.16 258.08 292.20 254.92 292.00 252.00
C 291.07 238.36 277.64 221.60 263.00 221.00
C 263.38 226.64 258.15 227.51 258.00 233.00
C 256.39 232.30 254.99 233.64 254.00 234.00 Z"/>
</g>
<g fill="None" fill-opacity="0.0" stroke="#271D05" stroke-opacity="1.00" stroke-width="0.3"><path d="
M 226.00 237.00 
C 228.37 233.17 231.16 229.74 235.00 227.00
C 231.32 228.89 227.75 233.20 226.00 237.00 Z"/>
</g>
<g fill="None" fill-opacity="0.0" stroke="#292D32" stroke-opacity="1.00" stroke-width="0.3"><path d="
M 244.00 238.00 
C 240.96 240.68 237.90 244.82 236.00 248.00
C 235.37 249.06 234.27 250.54 234.00 252.00
C 233.90 253.08 233.93 259.95 234.00 261.00
C 235.37 269.62 243.36 277.68 252.00 279.00
C 285.39 284.09 287.07 231.26 254.00 234.00
C 250.30 235.37 247.21 235.59 244.00 238.00
M 254.00 242.00 
C 261.50 244.41 257.33 257.91 249.33 254.67 C 241.33 251.43 245.81 239.37 254.00 242.00 Z"/>
</g>
<g fill="None" fill-opacity="0.0" stroke="#23220B" stroke-opacity="1.00" stroke-width="0.3"><path d="
M 236.00 248.00 
C 237.90 244.82 240.96 240.68 244.00 238.00
C 240.09 240.94 237.99 243.83 236.00 248.00 Z"/>
</g>
<g fill="None" fill-opacity="0.0" stroke="#3C8EDC" stroke-opacity="1.00" stroke-width="0.3"><path d="
M 254.00 242.00 
C 245.81 239.37 241.33 251.43 249.33 254.67 C 257.33 257.91 261.50 244.41 254.00 242.00 Z"/>
</g>
<g fill="None" fill-opacity="0.0" stroke="#290000" stroke-opacity="0.31" stroke-width="0.3"><path d="
M 130.00 265.00 
C 129.00 263.24 129.10 250.84 130.00 249.00
C 128.17 251.56 127.89 262.44 130.00 265.00 Z"/>
</g>
<g fill="None" fill-opacity="0.0" stroke="#281E0A" stroke-opacity="1.00" stroke-width="0.3"><path d="
M 193.00 263.00 
C 192.43 259.06 192.64 253.97 193.00 250.00
C 190.93 252.00 191.40 260.83 193.00 263.00 Z"/>
</g>
<g fill="None" fill-opacity="0.0" stroke="#2B71A1" stroke-opacity="1.00" stroke-width="0.3"><path d="
M 193.00 263.00 
C 193.22 263.30 193.96 263.78 194.00 264.00
C 193.76 259.40 193.82 254.60 194.00 250.00
C 194.00 250.00 193.26 249.75 193.00 250.00
C 192.64 253.97 192.43 259.06 193.00 263.00 Z"/>
</g>
<g fill="None" fill-opacity="0.0" stroke="#261A03" stroke-opacity="1.00" stroke-width="0.3"><path d="
M 207.00 263.00 
C 206.95 260.01 206.94 253.05 207.00 250.00
C 206.53 253.97 206.56 259.03 207.00 263.00 Z"/>
</g>
<g fill="None" fill-opacity="0.0" stroke="#251F04" stroke-opacity="1.00" stroke-width="0.3"><path d="
M 220.00 262.00 
C 219.56 258.83 219.49 254.15 220.00 251.00
C 218.91 254.68 219.00 258.27 220.00 262.00 Z"/>
</g>
<g fill="None" fill-opacity="0.0" stroke="#232000" stroke-opacity="1.00" stroke-width="0.3"><path d="
M 234.00 261.00 
C 233.93 259.95 233.90 253.08 234.00 252.00
C 233.54 254.48 233.60 258.51 234.00 261.00 Z"/>
</g>
<g fill="None" fill-opacity="0.0" stroke="#444184" stroke-opacity="1.00" stroke-width="0.3"><path d="
M 292.00 261.00 
C 292.51 257.89 292.57 255.19 292.00 252.00
C 292.20 254.92 292.16 258.08 292.00 261.00 Z"/>
</g>
<g fill="None" fill-opacity="0.0" stroke="#005500" stroke-opacity="0.01" stroke-width="0.3"><path d="
M 383.00 264.00 
C 384.89 260.95 383.35 257.94 383.00 255.00
C 383.05 257.31 383.88 261.89 383.00 264.00 Z"/>
</g>
<g fill="None" fill-opacity="0.0" stroke="#281906" stroke-opacity="1.00" stroke-width="0.3"><path d="
M 197.00 279.00 
C 195.78 276.07 195.59 273.09 195.00 270.00
C 195.22 272.87 193.85 276.09 197.00 279.00 Z"/>
</g>
<g fill="None" fill-opacity="0.0" stroke="#2A1F09" stroke-opacity="1.00" stroke-width="0.3"><path d="
M 202.00 289.00 
C 200.32 286.11 199.14 283.03 198.00 280.00
C 197.11 283.43 199.81 285.96 202.00 289.00 Z"/>
</g>
<g fill="None" fill-opacity="0.0" stroke="#393367" stroke-opacity="1.00" stroke-width="0.3"><path d="
M 269.00 332.00 
C 271.62 332.00 274.39 332.25 277.00 332.00
C 284.74 331.25 293.57 329.21 301.00 326.00
C 319.17 318.16 324.17 300.57 329.00 283.00
C 318.42 306.15 294.34 327.71 269.00 332.00 Z"/>
</g>
<g fill="None" fill-opacity="0.0" stroke="#2D598E" stroke-opacity="0.99" stroke-width="0.3"><path d="
M 194.00 317.00 
C 200.75 327.46 218.51 337.07 230.00 341.00
C 226.16 338.58 222.29 331.74 220.00 328.00
C 219.10 326.53 218.10 322.16 218.00 322.00
C 205.27 314.10 191.85 299.29 185.00 287.00
C 187.80 297.03 191.07 307.35 194.00 317.00 Z"/>
</g>
<g fill="None" fill-opacity="0.0" stroke="#457FD8" stroke-opacity="1.00" stroke-width="0.3"><path d="
M 219.00 307.00 
C 227.20 313.20 236.73 317.26 247.00 319.00
C 240.94 316.05 245.49 306.94 243.00 304.00
C 237.43 302.58 230.50 299.77 226.00 296.00
C 221.01 294.11 216.22 303.04 219.00 307.00 Z"/>
</g>
<g fill="None" fill-opacity="0.0" stroke="#281902" stroke-opacity="1.00" stroke-width="0.3"><path d="
M 216.00 305.00 
C 212.69 302.50 209.60 299.30 207.00 296.00
C 208.66 298.83 212.94 303.32 216.00 305.00 Z"/>
</g>
<g fill="None" fill-opacity="0.0" stroke="#516FD3" stroke-opacity="1.00" stroke-width="0.3"><path d="
M 247.00 319.00 
C 254.91 320.34 262.29 319.71 270.00 318.00
C 273.09 313.05 270.04 309.75 271.00 305.00
C 273.81 306.85 273.79 302.39 272.00 304.00
C 268.80 305.04 264.30 305.71 261.00 306.00
C 258.16 306.25 254.84 306.25 252.00 306.00
C 249.04 305.74 245.85 304.73 243.00 304.00
C 245.49 306.94 240.94 316.05 247.00 319.00 Z"/>
</g>
<g fill="None" fill-opacity="0.0" stroke="#252805" stroke-opacity="1.00" stroke-width="0.3"><path d="
M 252.00 306.00 
C 254.84 306.25 258.16 306.25 261.00 306.00
C 259.02 305.98 254.05 305.98 252.00 306.00 Z"/>
</g>
<g fill="None" fill-opacity="0.0" stroke="#5490E8" stroke-opacity="1.00" stroke-width="0.3"><path d="
M 220.00 328.00 
C 219.88 327.41 220.77 324.29 222.00 324.00
C 220.65 323.39 219.27 322.79 218.00 322.00
C 218.10 322.16 219.10 326.53 220.00 328.00 Z"/>
</g>
<g fill="None" fill-opacity="0.0" stroke="#506FD5" stroke-opacity="1.00" stroke-width="0.3"><path d="
M 220.00 328.00 
C 222.29 331.74 226.16 338.58 230.00 341.00
C 238.51 343.91 246.70 346.00 256.00 346.00
C 264.00 346.00 272.00 346.00 280.00 346.00
C 278.05 345.81 274.66 344.07 272.00 345.00
C 274.61 340.87 278.59 333.46 277.00 332.00
C 274.39 332.25 271.62 332.00 269.00 332.00
C 267.33 332.00 265.67 332.00 264.00 332.00
C 259.39 332.00 254.59 332.40 250.00 332.00
C 240.28 331.14 230.79 327.99 222.00 324.00
C 220.77 324.29 219.88 327.41 220.00 328.00 Z"/>
</g>
<g fill="None" fill-opacity="0.0" stroke="#605DD5" stroke-opacity="1.00" stroke-width="0.3"><path d="
M 277.00 332.00 
C 278.59 333.46 274.61 340.87 272.00 345.00
C 274.66 344.07 278.05 345.81 280.00 346.00
C 283.67 346.00 287.33 346.00 291.00 346.00
C 294.05 343.21 296.07 336.68 294.00 333.00
C 295.65 330.77 298.88 327.47 301.00 326.00
C 293.57 329.21 284.74 331.25 277.00 332.00 Z"/>
</g>
<g fill="None" fill-opacity="0.0" stroke="#222503" stroke-opacity="1.00" stroke-width="0.3"><path d="
M 250.00 332.00 
C 254.59 332.40 259.39 332.00 264.00 332.00
C 259.86 331.56 254.08 331.96 250.00 332.00 Z"/>
</g>
<g fill="None" fill-opacity="0.0" stroke="#373A51" stroke-opacity="0.88" stroke-width="0.3"><path d="
M 317.00 346.00 
C 308.34 346.17 299.66 346.00 291.00 346.00
C 287.33 346.00 283.67 346.00 280.00 346.00
C 272.00 346.00 264.00 346.00 256.00 346.00
C 274.90 347.83 298.05 348.29 317.00 346.00 Z"/>
</g>
<g fill="#000000" fill-opacity="0.00" stroke="None">
<path d="
M 0.00 512.00 
L 512.00 512.00
L 512.00 0.00
L 0.00 0.00
L 0.00 512.00
M 291.00 176.00 
C 300.26 180.68 312.64 187.83 319.00 197.00
C 315.89 187.16 313.32 177.09 311.00 167.00
C 362.71 162.22 339.23 239.02 383.00 248.00
C 383.00 250.33 383.00 252.67 383.00 255.00
C 383.35 257.94 384.89 260.95 383.00 264.00
C 378.87 270.68 365.76 271.03 362.08 280.08 C 358.40 289.13 353.92 296.79 351.22 306.22 C 348.52 315.66 346.63 325.03 341.69 333.69 C 336.76 342.36 326.09 345.82 317.00 346.00
C 298.05 348.29 274.90 347.83 256.00 346.00
C 246.70 346.00 238.51 343.91 230.00 341.00
C 218.51 337.07 200.75 327.46 194.00 317.00
C 196.90 326.56 199.22 336.37 202.00 346.00
C 177.42 350.99 165.23 327.86 162.00 308.00
C 159.99 301.64 157.67 295.72 155.68 289.32 C 153.69 282.92 149.04 279.98 145.75 274.25 C 142.46 268.51 133.28 268.99 130.00 265.00
C 127.89 262.44 128.17 251.56 130.00 249.00
C 133.08 244.68 142.17 244.83 145.75 239.75 C 149.32 234.66 153.26 230.31 155.32 224.32 C 157.38 218.33 159.92 212.07 162.00 206.00
C 165.84 194.78 166.56 185.31 174.75 175.75 C 182.94 166.20 197.00 167.00 209.00 167.00
C 224.67 167.00 240.33 167.00 256.00 167.00
C 268.57 167.00 280.34 170.61 291.00 176.00 Z"/>
</g>
<g fill="#23A1E5" fill-opacity="1.00" stroke="None">
<path d="
M 162.00 206.00 
C 161.48 212.38 160.53 222.36 160.00 231.00 C 159.47 239.64 160.86 249.03 160.20 257.25 C 159.54 265.46 160.95 277.46 160.80 285.25 C 160.65 293.04 161.57 301.86 162.00 308.00
C 165.23 327.86 177.42 350.99 202.00 346.00
C 199.22 336.37 196.90 326.56 194.00 317.00
C 191.07 307.35 187.80 297.03 185.00 287.00
C 181.86 275.73 178.46 263.10 167.00 257.00
C 175.58 250.62 181.99 241.43 184.00 231.00
C 188.84 213.40 192.52 195.64 211.00 187.00
C 210.52 187.06 208.21 185.82 207.00 187.00
C 208.92 181.19 209.93 169.41 202.00 168.00
C 204.19 167.48 207.62 169.14 209.00 167.00
C 197.00 167.00 182.94 166.20 174.75 175.75 C 166.56 185.31 165.84 194.78 162.00 206.00 Z"/>
</g>
<g fill="#4280DA" fill-opacity="1.00" stroke="None">
<path d="
M 211.00 187.00 
C 220.14 182.72 230.62 181.00 241.00 181.00
C 245.26 180.59 251.03 179.23 256.00 180.00
C 253.27 178.39 255.52 175.35 252.00 174.00
C 255.64 174.61 257.26 169.72 256.00 167.00
C 240.33 167.00 224.67 167.00 209.00 167.00
C 207.62 169.14 204.19 167.48 202.00 168.00
C 209.93 169.41 208.92 181.19 207.00 187.00
C 208.21 185.82 210.52 187.06 211.00 187.00 Z"/>
</g>
<g fill="#5865D1" fill-opacity="0.99" stroke="None">
<path d="
M 241.00 181.00 
C 243.00 181.00 245.00 181.00 247.00 181.00
C 247.50 181.00 248.50 181.00 249.00 181.00
C 253.61 181.00 258.42 180.60 263.00 181.00
C 275.06 182.06 289.16 186.61 299.00 194.00
C 296.85 190.33 294.56 180.33 291.00 176.00
C 280.34 170.61 268.57 167.00 256.00 167.00
C 257.26 169.72 255.64 174.61 252.00 174.00
C 255.52 175.35 253.27 178.39 256.00 180.00
C 251.03 179.23 245.26 180.59 241.00 181.00 Z"/>
</g>
<g fill="#7C43D9" fill-opacity="1.00" stroke="None">
<path d="
M 319.00 197.00 
C 322.04 206.62 325.31 216.93 328.00 227.00
C 331.03 238.34 334.32 251.19 346.00 257.00
C 336.27 262.18 330.71 272.72 329.00 283.00
C 324.17 300.57 319.17 318.16 301.00 326.00
C 298.88 327.47 295.65 330.77 294.00 333.00
C 296.07 336.68 294.05 343.21 291.00 346.00
C 299.66 346.00 308.34 346.17 317.00 346.00
C 326.09 345.82 336.76 342.36 341.69 333.69 C 346.63 325.03 348.52 315.66 351.22 306.22 C 353.92 296.79 358.40 289.13 362.08 280.08 C 365.76 271.03 378.87 270.68 383.00 264.00
C 383.88 261.89 383.05 257.31 383.00 255.00
C 383.00 252.67 383.00 250.33 383.00 248.00
C 339.23 239.02 362.71 162.22 311.00 167.00
C 313.32 177.09 315.89 187.16 319.00 197.00 Z"/>
</g>
<g fill="#453D8C" fill-opacity="0.99" stroke="None">
<path d="
M 299.00 194.00 
C 310.34 202.52 321.54 214.77 328.00 227.00
C 325.31 216.93 322.04 206.62 319.00 197.00
C 312.64 187.83 300.26 180.68 291.00 176.00
C 294.56 180.33 296.85 190.33 299.00 194.00 Z"/>
</g>
<g fill="#244971" fill-opacity="1.00" stroke="None">
<path d="
M 211.00 187.00 
C 192.52 195.64 188.84 213.40 184.00 231.00
C 189.98 218.35 196.43 208.19 207.70 198.70 C 218.96 189.20 233.54 184.86 247.00 181.00
C 245.00 181.00 243.00 181.00 241.00 181.00
C 230.62 181.00 220.14 182.72 211.00 187.00 Z"/>
</g>
<g fill="#282D32" fill-opacity="1.00" stroke="None">
<path d="
M 184.00 231.00 
C 181.99 241.43 175.58 250.62 167.00 257.00
C 178.46 263.10 181.86 275.73 185.00 287.00
C 191.85 299.29 205.27 314.10 218.00 322.00
C 219.27 322.79 220.65 323.39 222.00 324.00
C 230.79 327.99 240.28 331.14 250.00 332.00
C 254.08 331.96 259.86 331.56 264.00 332.00
C 265.67 332.00 267.33 332.00 269.00 332.00
C 294.34 327.71 318.42 306.15 329.00 283.00
C 330.71 272.72 336.27 262.18 346.00 257.00
C 334.32 251.19 331.03 238.34 328.00 227.00
C 321.54 214.77 310.34 202.52 299.00 194.00
C 289.16 186.61 275.06 182.06 263.00 181.00
C 258.69 181.04 253.47 182.90 249.00 181.00
C 248.50 181.00 247.50 181.00 247.00 181.00
C 233.54 184.86 218.96 189.20 207.70 198.70 C 196.43 208.19 189.98 218.35 184.00 231.00
M 263.00 194.00 
C 265.64 194.14 267.52 194.45 270.00 195.00
C 298.68 201.35 318.58 226.51 319.00 256.00 C 319.42 285.49 298.94 311.59 270.00 318.00
C 262.29 319.71 254.91 320.34 247.00 319.00
C 236.73 317.26 227.20 313.20 219.00 307.00
C 218.06 306.29 216.90 305.68 216.00 305.00
C 212.94 303.32 208.66 298.83 207.00 296.00
C 205.22 293.74 203.31 291.26 202.00 289.00
C 199.81 285.96 197.11 283.43 198.00 280.00
C 197.87 279.65 197.26 279.24 197.00 279.00
C 193.85 276.09 195.22 272.87 195.00 270.00
C 194.61 267.96 194.12 266.28 194.00 264.00
C 193.96 263.78 193.22 263.30 193.00 263.00
C 191.40 260.83 190.93 252.00 193.00 250.00
C 193.26 249.75 194.00 250.00 194.00 250.00
C 194.43 238.67 199.79 228.65 205.00 219.00
C 207.70 213.99 213.35 208.88 217.00 207.00
C 218.32 206.06 219.81 205.74 221.00 205.00
C 230.13 199.33 238.53 194.44 250.00 194.00
C 254.29 193.39 258.76 193.31 263.00 194.00 Z"/>
</g>
<g fill="#242506" fill-opacity="1.00" stroke="None">
<path d="
M 263.00 181.00 
C 258.42 180.60 253.61 181.00 249.00 181.00
C 253.47 182.90 258.69 181.04 263.00 181.00 Z"/>
</g>
<g fill="#3E4D81" fill-opacity="1.00" stroke="None">
<path d="
M 250.00 194.00 
C 254.27 193.84 258.73 193.77 263.00 194.00
C 258.76 193.31 254.29 193.39 250.00 194.00 Z"/>
</g>
<g fill="#4D79D7" fill-opacity="1.00" stroke="None">
<path d="
M 221.00 205.00 
C 219.30 208.49 223.65 216.81 225.00 218.00
C 225.53 217.50 226.47 217.40 227.00 217.00
C 236.70 209.73 249.22 205.46 262.00 207.00
C 263.10 206.53 263.56 198.00 265.00 196.00
C 266.36 197.13 269.02 196.31 270.00 195.00
C 267.52 194.45 265.64 194.14 263.00 194.00
C 258.73 193.77 254.27 193.84 250.00 194.00
C 238.53 194.44 230.13 199.33 221.00 205.00 Z"/>
</g>
<g fill="#665AD4" fill-opacity="1.00" stroke="None">
<path d="
M 262.00 207.00 
C 283.59 209.61 302.94 227.96 305.78 250.22 C 308.62 272.48 293.45 297.04 272.00 304.00
C 273.79 302.39 273.81 306.85 271.00 305.00
C 270.04 309.75 273.09 313.05 270.00 318.00
C 298.94 311.59 319.42 285.49 319.00 256.00 C 318.58 226.51 298.68 201.35 270.00 195.00
C 269.02 196.31 266.36 197.13 265.00 196.00
C 263.56 198.00 263.10 206.53 262.00 207.00 Z"/>
</g>
<g fill="#388FDE" fill-opacity="1.00" stroke="None">
<path d="
M 217.00 207.00 
C 212.74 210.03 207.87 214.98 205.00 219.00
C 199.79 228.65 194.43 238.67 194.00 250.00
C 193.82 254.60 193.76 259.40 194.00 264.00
C 194.12 266.28 194.61 267.96 195.00 270.00
C 195.59 273.09 195.78 276.07 197.00 279.00
C 197.26 279.24 197.87 279.65 198.00 280.00
C 199.14 283.03 200.32 286.11 202.00 289.00
C 203.31 291.26 205.22 293.74 207.00 296.00
C 209.60 299.30 212.69 302.50 216.00 305.00
C 216.90 305.68 218.06 306.29 219.00 307.00
C 216.22 303.04 221.01 294.11 226.00 296.00
C 216.05 287.66 208.40 275.55 207.00 263.00
C 206.56 259.03 206.53 253.97 207.00 250.00
C 207.98 241.72 211.93 233.36 217.00 227.00
C 219.37 224.03 222.28 220.54 225.00 218.00
C 223.65 216.81 219.30 208.49 221.00 205.00
C 219.81 205.74 218.32 206.06 217.00 207.00 Z"/>
</g>
<g fill="#11B7EE" fill-opacity="1.00" stroke="None">
<path d="
M 130.00 249.00 
C 129.10 250.84 129.00 263.24 130.00 265.00
C 133.28 268.99 142.46 268.51 145.75 274.25 C 149.04 279.98 153.69 282.92 155.68 289.32 C 157.67 295.72 159.99 301.64 162.00 308.00
C 161.57 301.86 160.65 293.04 160.80 285.25 C 160.95 277.46 159.54 265.46 160.20 257.25 C 160.86 249.03 159.47 239.64 160.00 231.00 C 160.53 222.36 161.48 212.38 162.00 206.00
C 159.92 212.07 157.38 218.33 155.32 224.32 C 153.26 230.31 149.32 234.66 145.75 239.75 C 142.17 244.83 133.08 244.68 130.00 249.00 Z"/>
</g>
<g fill="#291C10" fill-opacity="1.00" stroke="None">
<path d="
M 205.00 219.00 
C 207.87 214.98 212.74 210.03 217.00 207.00
C 213.35 208.88 207.70 213.99 205.00 219.00 Z"/>
</g>
<g fill="#282D31" fill-opacity="1.00" stroke="None">
<path d="
M 227.00 217.00 
C 223.76 220.02 219.98 223.81 217.00 227.00
C 211.93 233.36 207.98 241.72 207.00 250.00
C 206.94 253.05 206.95 260.01 207.00 263.00
C 208.40 275.55 216.05 287.66 226.00 296.00
C 230.50 299.77 237.43 302.58 243.00 304.00
C 245.85 304.73 249.04 305.74 252.00 306.00
C 254.05 305.98 259.02 305.98 261.00 306.00
C 264.30 305.71 268.80 305.04 272.00 304.00
C 293.45 297.04 308.62 272.48 305.78 250.22 C 302.94 227.96 283.59 209.61 262.00 207.00
C 249.22 205.46 236.70 209.73 227.00 217.00
M 261.00 220.00 
C 261.25 220.26 261.00 221.00 261.00 221.00
C 261.50 221.00 262.50 220.98 263.00 221.00
C 277.64 221.60 291.07 238.36 292.00 252.00
C 292.57 255.19 292.51 257.89 292.00 261.00
C 290.88 281.59 269.86 295.38 251.00 292.00
C 234.30 289.01 224.31 278.15 220.00 262.00
C 219.00 258.27 218.91 254.68 220.00 251.00
C 221.35 246.41 223.31 241.34 226.00 237.00
C 227.75 233.20 231.32 228.89 235.00 227.00
C 239.69 223.65 245.22 221.39 251.00 221.00
C 251.06 220.99 251.00 220.00 251.00 220.00
C 252.68 218.26 259.36 218.30 261.00 220.00 Z"/>
</g>
<g fill="#241C02" fill-opacity="1.00" stroke="None">
<path d="
M 225.00 218.00 
C 222.28 220.54 219.37 224.03 217.00 227.00
C 219.98 223.81 223.76 220.02 227.00 217.00
C 226.47 217.40 225.53 217.50 225.00 218.00 Z"/>
</g>
<g fill="#22250E" fill-opacity="1.00" stroke="None">
<path d="
M 251.00 220.00 
C 254.15 219.72 257.85 219.72 261.00 220.00
C 259.36 218.30 252.68 218.26 251.00 220.00 Z"/>
</g>
<g fill="#465DA3" fill-opacity="1.00" stroke="None">
<path d="
M 251.00 221.00 
C 254.30 220.78 257.69 221.00 261.00 221.00
C 261.00 221.00 261.25 220.26 261.00 220.00
C 257.85 219.72 254.15 219.72 251.00 220.00
C 251.00 220.00 251.06 220.99 251.00 221.00 Z"/>
</g>
<g fill="#4C7CD9" fill-opacity="1.00" stroke="None">
<path d="
M 235.00 227.00 
C 231.16 229.74 228.37 233.17 226.00 237.00
C 223.31 241.34 221.35 246.41 220.00 251.00
C 219.49 254.15 219.56 258.83 220.00 262.00
C 224.31 278.15 234.30 289.01 251.00 292.00
C 256.57 291.32 252.84 285.17 254.00 281.00
C 252.20 281.36 250.58 280.80 252.00 279.00
C 243.36 277.68 235.37 269.62 234.00 261.00
C 233.60 258.51 233.54 254.48 234.00 252.00
C 234.27 250.54 235.37 249.06 236.00 248.00
C 237.99 243.83 240.09 240.94 244.00 238.00
C 247.21 235.59 250.30 235.37 254.00 234.00
C 254.99 233.64 256.39 232.30 258.00 233.00
C 258.15 227.51 263.38 226.64 263.00 221.00
C 262.50 220.98 261.50 221.00 261.00 221.00
C 257.69 221.00 254.30 220.78 251.00 221.00
C 245.22 221.39 239.69 223.65 235.00 227.00 Z"/>
</g>
<g fill="#5F65D5" fill-opacity="1.00" stroke="None">
<path d="
M 254.00 234.00 
C 287.07 231.26 285.39 284.09 252.00 279.00
C 250.58 280.80 252.20 281.36 254.00 281.00
C 252.84 285.17 256.57 291.32 251.00 292.00
C 269.86 295.38 290.88 281.59 292.00 261.00
C 292.16 258.08 292.20 254.92 292.00 252.00
C 291.07 238.36 277.64 221.60 263.00 221.00
C 263.38 226.64 258.15 227.51 258.00 233.00
C 256.39 232.30 254.99 233.64 254.00 234.00 Z"/>
</g>
<g fill="#271D05" fill-opacity="1.00" stroke="None">
<path d="
M 226.00 237.00 
C 228.37 233.17 231.16 229.74 235.00 227.00
C 231.32 228.89 227.75 233.20 226.00 237.00 Z"/>
</g>
<g fill="#292D32" fill-opacity="1.00" stroke="None">
<path d="
M 244.00 238.00 
C 240.96 240.68 237.90 244.82 236.00 248.00
C 235.37 249.06 234.27 250.54 234.00 252.00
C 233.90 253.08 233.93 259.95 234.00 261.00
C 235.37 269.62 243.36 277.68 252.00 279.00
C 285.39 284.09 287.07 231.26 254.00 234.00
C 250.30 235.37 247.21 235.59 244.00 238.00
M 254.00 242.00 
C 261.50 244.41 257.33 257.91 249.33 254.67 C 241.33 251.43 245.81 239.37 254.00 242.00 Z"/>
</g>
<g fill="#23220B" fill-opacity="1.00" stroke="None">
<path d="
M 236.00 248.00 
C 237.90 244.82 240.96 240.68 244.00 238.00
C 240.09 240.94 237.99 243.83 236.00 248.00 Z"/>
</g>
<g fill="#3C8EDC" fill-opacity="1.00" stroke="None">
<path d="
M 254.00 242.00 
C 245.81 239.37 241.33 251.43 249.33 254.67 C 257.33 257.91 261.50 244.41 254.00 242.00 Z"/>
</g>
<g fill="#290000" fill-opacity="0.31" stroke="None">
<path d="
M 130.00 265.00 
C 129.00 263.24 129.10 250.84 130.00 249.00
C 128.17 251.56 127.89 262.44 130.00 265.00 Z"/>
</g>
<g fill="#281E0A" fill-opacity="1.00" stroke="None">
<path d="
M 193.00 263.00 
C 192.43 259.06 192.64 253.97 193.00 250.00
C 190.93 252.00 191.40 260.83 193.00 263.00 Z"/>
</g>
<g fill="#2B71A1" fill-opacity="1.00" stroke="None">
<path d="
M 193.00 263.00 
C 193.22 263.30 193.96 263.78 194.00 264.00
C 193.76 259.40 193.82 254.60 194.00 250.00
C 194.00 250.00 193.26 249.75 193.00 250.00
C 192.64 253.97 192.43 259.06 193.00 263.00 Z"/>
</g>
<g fill="#261A03" fill-opacity="1.00" stroke="None">
<path d="
M 207.00 263.00 
C 206.95 260.01 206.94 253.05 207.00 250.00
C 206.53 253.97 206.56 259.03 207.00 263.00 Z"/>
</g>
<g fill="#251F04" fill-opacity="1.00" stroke="None">
<path d="
M 220.00 262.00 
C 219.56 258.83 219.49 254.15 220.00 251.00
C 218.91 254.68 219.00 258.27 220.00 262.00 Z"/>
</g>
<g fill="#232000" fill-opacity="1.00" stroke="None">
<path d="
M 234.00 261.00 
C 233.93 259.95 233.90 253.08 234.00 252.00
C 233.54 254.48 233.60 258.51 234.00 261.00 Z"/>
</g>
<g fill="#444184" fill-opacity="1.00" stroke="None">
<path d="
M 292.00 261.00 
C 292.51 257.89 292.57 255.19 292.00 252.00
C 292.20 254.92 292.16 258.08 292.00 261.00 Z"/>
</g>
<g fill="#005500" fill-opacity="0.01" stroke="None">
<path d="
M 383.00 264.00 
C 384.89 260.95 383.35 257.94 383.00 255.00
C 383.05 257.31 383.88 261.89 383.00 264.00 Z"/>
</g>
<g fill="#281906" fill-opacity="1.00" stroke="None">
<path d="
M 197.00 279.00 
C 195.78 276.07 195.59 273.09 195.00 270.00
C 195.22 272.87 193.85 276.09 197.00 279.00 Z"/>
</g>
<g fill="#2A1F09" fill-opacity="1.00" stroke="None">
<path d="
M 202.00 289.00 
C 200.32 286.11 199.14 283.03 198.00 280.00
C 197.11 283.43 199.81 285.96 202.00 289.00 Z"/>
</g>
<g fill="#393367" fill-opacity="1.00" stroke="None">
<path d="
M 269.00 332.00 
C 271.62 332.00 274.39 332.25 277.00 332.00
C 284.74 331.25 293.57 329.21 301.00 326.00
C 319.17 318.16 324.17 300.57 329.00 283.00
C 318.42 306.15 294.34 327.71 269.00 332.00 Z"/>
</g>
<g fill="#2D598E" fill-opacity="0.99" stroke="None">
<path d="
M 194.00 317.00 
C 200.75 327.46 218.51 337.07 230.00 341.00
C 226.16 338.58 222.29 331.74 220.00 328.00
C 219.10 326.53 218.10 322.16 218.00 322.00
C 205.27 314.10 191.85 299.29 185.00 287.00
C 187.80 297.03 191.07 307.35 194.00 317.00 Z"/>
</g>
<g fill="#457FD8" fill-opacity="1.00" stroke="None">
<path d="
M 219.00 307.00 
C 227.20 313.20 236.73 317.26 247.00 319.00
C 240.94 316.05 245.49 306.94 243.00 304.00
C 237.43 302.58 230.50 299.77 226.00 296.00
C 221.01 294.11 216.22 303.04 219.00 307.00 Z"/>
</g>
<g fill="#281902" fill-opacity="1.00" stroke="None">
<path d="
M 216.00 305.00 
C 212.69 302.50 209.60 299.30 207.00 296.00
C 208.66 298.83 212.94 303.32 216.00 305.00 Z"/>
</g>
<g fill="#516FD3" fill-opacity="1.00" stroke="None">
<path d="
M 247.00 319.00 
C 254.91 320.34 262.29 319.71 270.00 318.00
C 273.09 313.05 270.04 309.75 271.00 305.00
C 273.81 306.85 273.79 302.39 272.00 304.00
C 268.80 305.04 264.30 305.71 261.00 306.00
C 258.16 306.25 254.84 306.25 252.00 306.00
C 249.04 305.74 245.85 304.73 243.00 304.00
C 245.49 306.94 240.94 316.05 247.00 319.00 Z"/>
</g>
<g fill="#252805" fill-opacity="1.00" stroke="None">
<path d="
M 252.00 306.00 
C 254.84 306.25 258.16 306.25 261.00 306.00
C 259.02 305.98 254.05 305.98 252.00 306.00 Z"/>
</g>
<g fill="#5490E8" fill-opacity="1.00" stroke="None">
<path d="
M 220.00 328.00 
C 219.88 327.41 220.77 324.29 222.00 324.00
C 220.65 323.39 219.27 322.79 218.00 322.00
C 218.10 322.16 219.10 326.53 220.00 328.00 Z"/>
</g>
<g fill="#506FD5" fill-opacity="1.00" stroke="None">
<path d="
M 220.00 328.00 
C 222.29 331.74 226.16 338.58 230.00 341.00
C 238.51 343.91 246.70 346.00 256.00 346.00
C 264.00 346.00 272.00 346.00 280.00 346.00
C 278.05 345.81 274.66 344.07 272.00 345.00
C 274.61 340.87 278.59 333.46 277.00 332.00
C 274.39 332.25 271.62 332.00 269.00 332.00
C 267.33 332.00 265.67 332.00 264.00 332.00
C 259.39 332.00 254.59 332.40 250.00 332.00
C 240.28 331.14 230.79 327.99 222.00 324.00
C 220.77 324.29 219.88 327.41 220.00 328.00 Z"/>
</g>
<g fill="#605DD5" fill-opacity="1.00" stroke="None">
<path d="
M 277.00 332.00 
C 278.59 333.46 274.61 340.87 272.00 345.00
C 274.66 344.07 278.05 345.81 280.00 346.00
C 283.67 346.00 287.33 346.00 291.00 346.00
C 294.05 343.21 296.07 336.68 294.00 333.00
C 295.65 330.77 298.88 327.47 301.00 326.00
C 293.57 329.21 284.74 331.25 277.00 332.00 Z"/>
</g>
<g fill="#222503" fill-opacity="1.00" stroke="None">
<path d="
M 250.00 332.00 
C 254.59 332.40 259.39 332.00 264.00 332.00
C 259.86 331.56 254.08 331.96 250.00 332.00 Z"/>
</g>
<g fill="#373A51" fill-opacity="0.88" stroke="None">
<path d="
M 317.00 346.00 
C 308.34 346.17 299.66 346.00 291.00 346.00
C 287.33 346.00 283.67 346.00 280.00 346.00
C 272.00 346.00 264.00 346.00 256.00 346.00
C 274.90 347.83 298.05 348.29 317.00 346.00 Z"/>
</g>
</svg>